<svg width="41" height="41" viewBox="0 0 41 41" fill="none" xmlns="http://www.w3.org/2000/svg">
<path d="M20.7328 8.69379C24.0237 8.69379 27.3147 8.69379 30.6056 8.69379C31.7519 8.69379 32.3043 9.24255 32.3043 10.3798C32.3043 16.992 32.3043 23.6043 32.3043 30.2147C32.3043 31.3231 31.7429 31.8791 30.6291 31.8791C24.0165 31.8791 17.404 31.8791 10.7932 31.8791C9.67761 31.8791 9.11799 31.3231 9.11799 30.2147C9.11799 23.5881 9.11618 16.9614 9.11799 10.3347C9.11799 9.25699 9.68664 8.69379 10.7698 8.69379C14.0914 8.69379 17.4112 8.69379 20.7328 8.69379ZM12.0479 11.6127C12.0479 17.4181 12.0479 23.1891 12.0479 28.9475C17.8499 28.9475 23.6212 28.9475 29.3835 28.9475C29.3835 23.1512 29.3835 17.3928 29.3835 11.6127C23.5995 11.6127 17.839 11.6127 12.0479 11.6127Z" fill="black"/>
<path d="M12.0133 2.88307C12.0133 3.36685 12.0223 3.84882 12.0115 4.3326C11.9917 5.17741 11.3544 5.8056 10.5439 5.79477C9.75318 5.78394 9.13037 5.16116 9.11954 4.33801C9.1069 3.37226 9.1051 2.40651 9.11954 1.44075C9.13218 0.623023 9.76942 0.0020532 10.5601 0.000248055C11.349 -0.00155709 11.9862 0.621218 12.0097 1.43534C12.026 1.91731 12.0133 2.40109 12.0133 2.88307Z" fill="black"/>
<path d="M32.3043 2.89928C32.3043 3.38126 32.3151 3.86504 32.3024 4.34701C32.2808 5.16474 31.6526 5.78932 30.8637 5.79293C30.0766 5.79654 29.4249 5.17377 29.4123 4.36326C29.396 3.38306 29.3942 2.40106 29.4123 1.42087C29.4267 0.608554 30.0784 -0.00880596 30.8709 0.000219773C31.6453 0.00744036 32.2718 0.612164 32.3006 1.40643C32.3169 1.90284 32.3024 2.40287 32.3043 2.89928Z" fill="black"/>
<path d="M3.32308 11.5928C2.84109 11.5928 2.35729 11.6019 1.87529 11.591C1.05752 11.5712 0.43111 10.9466 0.42389 10.1595C0.416669 9.34903 1.04669 8.71001 1.88973 8.69918C2.84109 8.68655 3.79064 8.68835 4.74199 8.69918C5.58503 8.71001 6.22228 9.34723 6.21686 10.1523C6.21325 10.9574 5.57601 11.5766 4.72755 11.5928C4.25819 11.6001 3.79064 11.5928 3.32308 11.5928Z" fill="black"/>
<path d="M38.108 11.5928C37.626 11.5928 37.1422 11.6019 36.6602 11.591C35.8406 11.5712 35.2142 10.9484 35.2052 10.1614C35.1961 9.35084 35.8262 8.71001 36.6692 8.69918C37.6206 8.68655 38.5701 8.68835 39.5215 8.69918C40.3663 8.70821 41.0018 9.34542 41 10.1505C40.9963 10.9556 40.3609 11.5766 39.5124 11.5928C39.0431 11.6001 38.5755 11.5928 38.108 11.5928Z" fill="black"/>
<path d="M3.314 31.8809C2.832 31.8809 2.3482 31.8917 1.86621 31.8791C1.05025 31.8574 0.425637 31.2256 0.423832 30.4386C0.422027 29.6461 1.03761 29.0035 1.85357 28.9891C2.83381 28.9728 3.81585 28.971 4.79609 28.9891C5.60483 29.0035 6.22583 29.6624 6.2168 30.4494C6.20778 31.2202 5.59761 31.8502 4.80873 31.8773C4.31048 31.8954 3.81044 31.8809 3.314 31.8809Z" fill="black"/>
<path d="M38.0989 31.8809C37.6169 31.8809 37.1331 31.8917 36.6511 31.8791C35.8351 31.8574 35.2105 31.2275 35.2051 30.4404C35.2015 29.6479 35.8189 29.0035 36.633 28.9891C37.6133 28.9728 38.5953 28.971 39.5755 28.9891C40.3843 29.0035 41.0071 29.6588 40.9981 30.4476C40.9908 31.2184 40.3807 31.8484 39.5918 31.8773C39.0954 31.8954 38.5971 31.8809 38.0989 31.8809Z" fill="black"/>
<path d="M9.11791 37.6574C9.11791 37.1754 9.10527 36.6916 9.11972 36.2097C9.14499 35.3955 9.78223 34.7782 10.5747 34.7836C11.3492 34.789 11.99 35.3919 12.0081 36.1844C12.0297 37.179 12.0297 38.1773 12.0081 39.1719C11.9918 39.9608 11.3492 40.5709 10.5783 40.5781C9.79126 40.5853 9.14499 39.9626 9.11972 39.1539C9.10527 38.6538 9.11791 38.1556 9.11791 37.6574Z" fill="black"/>
<path d="M29.4067 37.6448C29.4067 37.1772 29.3977 36.7097 29.4085 36.2422C29.4266 35.419 30.0404 34.7944 30.8311 34.7818C31.6416 34.7692 32.2879 35.3974 32.3005 36.2404C32.315 37.2061 32.3168 38.1719 32.3005 39.1376C32.2861 39.9535 31.6452 40.5763 30.8581 40.5763C30.0711 40.5763 29.4338 39.9517 29.4103 39.1394C29.3959 38.6412 29.4067 38.143 29.4067 37.6448Z" fill="black"/>
<path d="M29.3834 11.6127H12.0479V28.9476H29.3834V11.6127Z" fill="white"/>
</svg>
