<svg width="37" height="37" viewBox="0 0 37 37" fill="none" xmlns="http://www.w3.org/2000/svg">
<path d="M35.4662 35.3083H1.69352L1.02686 0.886292H26.9613L34.8265 9.131L35.4662 35.3083Z" fill="white"/>
<path d="M34.1773 37C23.7245 37 13.2717 37 2.81888 37C2.72832 36.973 2.63776 36.9441 2.54528 36.921C1.35838 36.6185 0.560694 35.8882 0.156069 34.7341C0.0924855 34.5549 0.0520231 34.3661 0 34.183C0 23.7303 0 13.2775 0 2.82466C0.017341 2.78035 0.0423892 2.73796 0.0539499 2.69364C0.50289 0.921002 1.66667 0.00770713 3.47977 0.00578035C11.4759 0.00578035 19.4721 0.00770713 27.4682 0C27.975 0 28.3603 0.159923 28.7168 0.518304C31.3064 3.12331 33.9037 5.72062 36.5067 8.31021C36.8459 8.6474 37 9.01349 37 9.49518C36.9904 14.0231 36.9942 18.5511 36.9942 23.079C36.9942 26.6069 36.9981 30.1349 36.9923 33.6647C36.9904 35.237 36.0231 36.5067 34.5549 36.896C34.4277 36.9306 34.3025 36.9653 34.1773 37ZM7.00771 2.19653C6.921 2.18497 6.88439 2.17726 6.84971 2.17726C5.68208 2.17534 4.51445 2.17341 3.34489 2.17726C2.60501 2.17919 2.1657 2.62813 2.1657 3.37958C2.16378 13.4586 2.16378 23.5376 2.1657 33.6166C2.1657 34.4046 2.60308 34.8324 3.4027 34.8343C4.48555 34.8362 5.57033 34.8343 6.65318 34.8343C6.76686 34.8343 6.88054 34.8343 7.00578 34.8343C7.00578 34.6301 7.00578 34.4855 7.00578 34.343C7.00578 30.2486 7.00578 26.1541 7.00578 22.0597C7.00578 19.9441 8.36994 18.578 10.4817 18.578C14.8536 18.578 19.2235 18.578 23.5954 18.578C25.7341 18.578 27.0925 19.9345 27.0925 22.0732C27.0925 26.1792 27.0925 30.2852 27.0925 34.3911C27.0925 34.5318 27.0925 34.6705 27.0925 34.8343C27.2447 34.8343 27.3507 34.8343 27.4566 34.8343C29.4913 34.8343 31.526 34.8343 33.5626 34.8343C34.4027 34.8343 34.8227 34.4123 34.8227 33.5665C34.8247 31.58 34.8227 29.5935 34.8227 27.605C34.8227 21.7534 34.8247 15.8998 34.817 10.0482C34.817 9.88439 34.7726 9.67245 34.6667 9.56647C32.2659 7.14836 29.8555 4.73988 27.4432 2.33333C27.3622 2.25434 27.2428 2.21387 27.0925 2.12524C27.0925 2.33911 27.0925 2.47013 27.0925 2.60308C27.0925 4.77071 27.0944 6.93834 27.0925 9.10597C27.0886 11.1175 25.6975 12.5067 23.6821 12.5087C19.262 12.5106 14.8439 12.5106 10.4239 12.5087C8.39114 12.5087 7.00771 11.1175 7.00771 9.07707C7.00578 6.921 7.00771 4.76686 7.00771 2.61079C7.00771 2.47784 7.00771 2.34682 7.00771 2.19653ZM24.9017 34.817C24.9017 31.6551 24.9017 28.5202 24.9017 25.3969C19.6474 25.3969 14.4181 25.3969 9.1946 25.3969C9.1946 28.5511 9.1946 31.6763 9.1946 34.817C14.4355 34.817 19.6551 34.817 24.9017 34.817ZM20.2832 10.3391C20.2832 7.58767 20.2832 4.89595 20.2832 2.19846C16.5742 2.19846 12.8863 2.19846 9.17726 2.19846C9.17726 2.34297 9.17726 2.4605 9.17726 2.57996C9.17726 4.73603 9.17726 6.89017 9.17726 9.04624C9.17726 9.93449 9.58574 10.3372 10.4855 10.3372C13.6166 10.3372 16.7476 10.3372 19.8786 10.3372C20.0058 10.3391 20.1368 10.3391 20.2832 10.3391ZM24.9268 23.1869C24.9268 22.7765 24.9268 22.4066 24.9268 22.0347C24.9249 21.1464 24.5183 20.7437 23.6185 20.7437C19.2389 20.7437 14.8574 20.7437 10.4778 20.7437C10.3931 20.7437 10.3083 20.7399 10.2254 20.7457C9.71869 20.7746 9.2659 21.1118 9.21195 21.6108C9.15607 22.1291 9.19846 22.657 9.19846 23.1888C14.4451 23.1869 19.6628 23.1869 24.9268 23.1869ZM22.4971 2.19268C22.4971 4.91908 22.4971 7.62042 22.4971 10.3391C22.896 10.3391 23.2678 10.3391 23.6397 10.3391C24.5106 10.3372 24.9268 9.92678 24.9287 9.06358C24.9287 6.89595 24.9287 4.72832 24.9287 2.56262C24.9287 2.44509 24.9287 2.32755 24.9287 2.19461C24.104 2.19268 23.3141 2.19268 22.4971 2.19268Z" fill="black"/>
</svg>
