<svg width="38" height="42" viewBox="0 0 38 42" fill="none" xmlns="http://www.w3.org/2000/svg">
<path d="M26.8185 39.4674C31.577 39.4674 35.4344 35.6442 35.4344 30.928C35.4344 26.2118 31.577 22.3886 26.8185 22.3886C22.0601 22.3886 18.2026 26.2118 18.2026 30.928C18.2026 35.6442 22.0601 39.4674 26.8185 39.4674Z" fill="white"/>
<path d="M33.594 18.1292C32.5504 17.7594 31.5426 17.4103 30.5406 17.0404C30.4381 17.0021 30.3519 16.8592 30.3073 16.7458C30.2686 16.6441 30.2983 16.5159 30.2983 16.3996C30.2983 12.6956 30.2983 8.99316 30.2983 5.28923C30.2983 3.87042 29.6948 3.27667 28.2544 3.27667C23.7532 3.27667 19.2505 3.27667 14.7493 3.27667C14.5754 3.27667 14.4029 3.27667 14.1696 3.27667C14.1696 3.47409 14.1696 3.62879 14.1696 3.78349C14.1696 5.4896 14.1725 7.19571 14.1696 8.90181C14.1636 11.9044 12.0245 14.026 9.00389 14.0275C7.13682 14.0275 5.26975 14.0275 3.34767 14.0275C3.34024 14.1969 3.32686 14.3502 3.32686 14.5034C3.32537 21.954 3.32537 29.4046 3.32686 36.8552C3.32686 38.0795 3.96012 38.7057 5.20434 38.7071C8.22049 38.7101 11.2352 38.7115 14.2513 38.7012C14.5516 38.6998 14.7107 38.8117 14.8994 39.0342C15.6442 39.9152 16.4216 40.7668 17.1917 41.6273C17.2853 41.7319 17.3968 41.8217 17.5871 42.0015C17.3254 42.0015 17.1723 42.0015 17.0192 42.0015C13.077 42.0015 9.13471 42.0029 5.19096 42.0015C2.15697 42 0.0119136 39.8696 0.007454 36.8375C0.00150791 31.5306 0.00596748 26.2222 0.00596748 20.9153C0.00596748 17.9996 0.00894052 15.0824 2.13837e-05 12.1667C-0.00146514 11.8691 0.0743475 11.651 0.29138 11.4345C4.02255 7.73052 7.74629 4.01922 11.4671 0.303504C11.6648 0.104606 11.8565 0 12.1523 0C17.5811 0.00883993 23.0084 0.00294664 28.4372 0.00883993C30.9702 0.0117866 32.9012 1.48216 33.4646 3.83064C33.5494 4.18129 33.5969 4.55109 33.5984 4.91058C33.6073 9.24068 33.6044 13.5708 33.6044 17.9023C33.6029 17.9863 33.5954 18.0718 33.594 18.1292ZM5.70381 10.7346C6.98965 10.7346 8.20414 10.7847 9.4112 10.7169C10.2674 10.6698 10.8234 9.96997 10.8427 9.11397C10.8516 8.72207 10.8457 8.32869 10.8457 7.93531C10.8457 7.18687 10.8457 6.43842 10.8457 5.69586C9.13471 7.37398 7.45048 9.0241 5.70381 10.7346Z" fill="black"/>
<path d="M15.6592 30.9383C15.6414 24.8328 20.6376 19.8663 26.8052 19.8574C32.9698 19.8501 37.9823 24.7945 38.0002 30.9015C38.018 36.9833 32.9951 41.9779 26.8423 41.9985C20.7015 42.0191 15.6771 37.0496 15.6592 30.9383ZM26.7977 38.7042C31.1473 38.7145 34.6659 35.2478 34.6778 30.9457C34.6897 26.645 31.177 23.137 26.8483 23.1267C22.521 23.1164 18.9712 26.6126 18.9608 30.8956C18.9504 35.1932 22.4645 38.6939 26.7977 38.7042Z" fill="black"/>
<path d="M31.7566 29.2661C31.7566 30.402 31.7566 31.4599 31.7566 32.559C30.6655 32.559 29.5997 32.559 28.4907 32.559C28.4907 33.6566 28.4907 34.713 28.4907 35.8062C27.3714 35.8062 26.2937 35.8062 25.1699 35.8062C25.1699 34.7321 25.1699 33.6743 25.1699 32.5767C24.0579 32.5767 22.9906 32.5767 21.8936 32.5767C21.8936 31.4672 21.8936 30.3991 21.8936 29.2823C22.9713 29.2823 24.0386 29.2823 25.152 29.2823C25.152 28.1773 25.152 27.1209 25.152 26.0336C26.2773 26.0336 27.355 26.0336 28.4744 26.0336C28.4744 27.1003 28.4744 28.1582 28.4744 29.2676C29.5804 29.2661 30.6462 29.2661 31.7566 29.2661Z" fill="black"/>
</svg>
