<svg width="25" height="41" viewBox="0 0 25 41" fill="none" xmlns="http://www.w3.org/2000/svg">
<path d="M24.4768 0.931396H0.0620117V40.2772H24.4768V0.931396Z" fill="white"/>
<path d="M0.472915 40.9627C0.121811 40.7616 0 40.461 0 40.0413C0.026273 27.0063 0.0429923 13.9689 0.0620999 0.931423C0.0620999 0.221058 0.274673 0 0.957772 0C8.67488 0.00993518 16.392 0.0223542 24.1067 0.0347731C24.7874 0.0347731 25 0.258315 25 0.96868C24.9833 14.0061 24.9618 27.0411 24.9522 40.0785C24.9522 40.4983 24.828 40.7988 24.4769 40.9975C16.4756 40.9876 8.47425 40.9752 0.472915 40.9627ZM1.35426 23.8792C8.79669 23.8916 16.2009 23.9016 23.6051 23.914C23.4833 11.3658 12.9072 1.11771 1.38531 1.41576C1.37575 8.89198 1.36381 16.3682 1.35426 23.8792ZM9.87389 39.5743C17.419 39.2166 23.2899 32.878 23.6171 25.3297C19.048 25.3223 14.4812 25.3148 9.893 25.3099C9.88822 30.0614 9.88105 34.8004 9.87389 39.5743ZM9.33171 1.38596C16.2129 4.20258 20.9754 9.16769 23.6362 16.3906C23.6434 11.3559 23.6505 6.38584 23.6577 1.40831C18.8617 1.40086 14.0967 1.39341 9.33171 1.38596ZM8.51963 39.5221C8.52441 36.8372 8.5268 34.1522 8.53158 31.4548C6.12401 31.4523 3.73794 31.4473 1.35426 31.4448C1.29932 35.8759 4.87246 39.3756 8.51963 39.5221ZM23.629 31.338C21.8926 35.0637 19.2319 37.8083 15.5369 39.5991C18.3123 39.6041 20.9587 39.6066 23.6171 39.6116C23.6195 36.8372 23.6242 34.0876 23.629 31.338ZM5.25461 25.367C2.99513 25.5881 1.20378 27.9775 1.38531 30.0067C2.66791 30.0092 3.9529 30.0117 5.24744 30.0117C5.25222 28.4519 5.25461 26.9268 5.25461 25.367ZM4.33505 39.5892C3.14799 38.7298 2.16872 37.6841 1.3447 36.3404C1.34231 37.4929 1.34231 38.5311 1.33993 39.5867C2.35502 39.5867 3.34384 39.5867 4.33505 39.5892ZM8.4026 27.2895C8.27362 26.4176 7.46871 25.5831 6.60409 25.4142C6.60409 26.0326 6.6017 26.6511 6.6017 27.287C7.21315 27.287 7.80548 27.2895 8.4026 27.2895ZM8.39543 28.7176C7.79354 28.7176 7.20359 28.7151 6.57782 28.7151C6.57782 29.0356 6.57543 29.3411 6.57782 29.6441C6.57782 29.7608 6.58737 29.88 6.59215 29.9918C7.35884 30.0688 8.08493 29.5596 8.39543 28.7176ZM1.35664 25.2925C1.35664 25.5657 1.35664 25.819 1.35664 26.0699C1.60982 25.8116 1.85344 25.5607 2.11379 25.2925C1.86061 25.2925 1.61699 25.2925 1.35664 25.2925Z" fill="black"/>
</svg>
