<svg width="42" height="42" viewBox="0 0 42 42" fill="none" xmlns="http://www.w3.org/2000/svg">
<path d="M4.73892 0.625244H0.784668V4.57972H4.73892V0.625244Z" fill="white"/>
<path d="M22.9723 0.73877H19.0181V4.69324H22.9723V0.73877Z" fill="white"/>
<path d="M41.2082 0.849731H37.2539V4.80421H41.2082V0.849731Z" fill="white"/>
<path d="M38.4948 16.3683H36.0107V18.8525H38.4948V16.3683Z" fill="white"/>
<path d="M5.97968 16.3683H3.49561V18.8525H5.97968V16.3683Z" fill="white"/>
<path d="M26.9338 37.4082H15.1387V41.0561H26.9338V37.4082Z" fill="white"/>
<path d="M28.4063 34.4604H13.6636V37.0992H28.4063V34.4604Z" fill="white"/>
<path d="M15.9933 34.4604L12.0342 22.9761L12.3504 21.4237L21.0121 8.07556L30.1928 22.5101L26.3979 34.4604H15.9933Z" fill="white"/>
<path d="M27.3758 33.8713C27.7403 33.8713 28.0638 33.8641 28.3873 33.8737C28.8628 33.8882 29.1187 34.1369 29.126 34.6125C29.1356 35.4309 29.1308 36.2493 29.1284 37.0677C29.126 37.7027 28.8966 37.9296 28.2593 37.9368C28.1193 37.9392 27.9769 37.9368 27.7741 37.9368C27.7741 38.0865 27.7741 38.2193 27.7741 38.3545C27.7741 39.3009 27.7789 40.2448 27.7717 41.1912C27.7693 41.7465 27.523 41.9999 26.9726 41.9999C22.9942 42.0024 19.0159 42.0024 15.0351 41.9999C14.4653 41.9999 14.2263 41.7489 14.2263 41.1598C14.2239 40.1048 14.2263 39.0474 14.2263 37.9344C13.9946 37.9344 13.7894 37.9417 13.5842 37.932C13.1545 37.9103 12.8841 37.6689 12.8793 37.2488C12.8648 36.3459 12.8648 35.443 12.8793 34.54C12.8865 34.1393 13.1521 33.893 13.5576 33.8761C13.8956 33.8616 14.2336 33.8737 14.615 33.8737C14.5595 33.6709 14.5184 33.4995 14.4629 33.3305C13.3018 29.842 12.1454 26.3535 10.9649 22.8697C10.8177 22.4376 10.8635 22.102 11.105 21.723C14.1563 16.9477 17.1957 12.1627 20.2398 7.38259C20.3001 7.28844 20.3557 7.18946 20.4233 7.09772C20.7443 6.67282 21.2416 6.66799 21.5627 7.08806C21.64 7.18946 21.7027 7.30051 21.7703 7.40674C24.7976 12.1651 27.8224 16.926 30.8617 21.6771C31.12 22.0803 31.1804 22.4328 31.021 22.8987C29.8333 26.4066 28.6721 29.9241 27.5037 33.4392C27.4627 33.5719 27.4265 33.7047 27.3758 33.8713ZM21.6786 9.81612C21.6786 10.0769 21.6786 10.2241 21.6786 10.3714C21.6786 14.2245 21.6834 18.0751 21.6713 21.9282C21.6713 22.2807 21.7413 22.4617 22.0962 22.609C23.4071 23.1498 24.0299 24.649 23.5447 25.9889C23.057 27.3384 21.5965 28.0748 20.2229 27.6644C18.8662 27.2564 18.0478 25.8634 18.3641 24.48C18.6079 23.4202 19.3007 22.7756 20.2929 22.4376C20.2929 18.2562 20.2929 14.0941 20.2929 9.86199C20.2036 9.98753 20.1529 10.0527 20.107 10.1227C17.5481 14.1424 14.9868 18.162 12.4424 22.1914C12.3434 22.3483 12.3265 22.6235 12.3868 22.8046C13.5577 26.3631 14.7526 29.9144 15.9234 33.473C16.0321 33.8037 16.1866 33.8882 16.5221 33.8858C19.5132 33.8713 22.5042 33.8713 25.4952 33.8882C25.8428 33.8906 25.9756 33.7796 26.0818 33.4609C27.2502 29.9168 28.4331 26.3752 29.6233 22.8384C29.7174 22.5559 29.6812 22.3483 29.5243 22.0996C26.9944 18.1451 24.4765 14.181 21.9538 10.2217C21.8862 10.1107 21.8138 10.0141 21.6786 9.81612ZM26.3981 37.9658C22.7794 37.9658 19.1921 37.9658 15.6144 37.9658C15.6144 38.8735 15.6144 39.7523 15.6144 40.6263C19.2259 40.6263 22.8011 40.6263 26.3981 40.6263C26.3981 39.7354 26.3981 38.8663 26.3981 37.9658ZM14.2457 36.5511C18.772 36.5511 23.2622 36.5511 27.7548 36.5511C27.7548 36.102 27.7548 35.6844 27.7548 35.2498C23.2453 35.2498 18.7551 35.2498 14.2457 35.2498C14.2457 35.6892 14.2457 36.1069 14.2457 36.5511ZM22.3521 25.0474C22.3424 24.3086 21.7317 23.7123 20.9906 23.7123C20.2615 23.7147 19.6435 24.3328 19.6459 25.0643C19.6483 25.8223 20.2736 26.4331 21.0292 26.4186C21.7655 26.4017 22.3618 25.7837 22.3521 25.0474Z" fill="black"/>
<path d="M5.41959 2.02551C9.73112 2.02551 13.9751 2.02551 18.289 2.02551C18.289 1.61992 18.2842 1.21675 18.289 0.813575C18.2963 0.253478 18.5352 0.00481482 19.0832 0.00240061C20.353 -0.00242781 21.6228 -0.00242781 22.8926 0.00240061C23.4648 0.00481482 23.6989 0.253478 23.7062 0.840132C23.711 1.19261 23.7086 1.54508 23.711 1.89756C23.711 1.92411 23.7231 1.95067 23.7376 2.00378C27.996 2.00378 32.2617 2.00378 36.5756 2.00378C36.5756 1.59337 36.5708 1.18778 36.578 0.782191C36.5877 0.253478 36.8315 0.00481482 37.3602 0.00240061C38.6445 -0.00242781 39.9287 -0.00242781 41.213 0.00240061C41.7393 0.00481482 41.9928 0.255893 41.9952 0.784605C42.0024 2.06896 42.0024 3.35332 41.9952 4.63768C41.9928 5.16398 41.7393 5.41747 41.213 5.41989C39.9287 5.42713 38.6445 5.42713 37.3602 5.41989C36.8339 5.41747 36.5877 5.16398 36.5804 4.63768C36.5732 4.24417 36.578 3.84824 36.578 3.42334C33.9177 3.42334 31.2743 3.42334 28.5392 3.42334C28.7371 3.51508 28.8675 3.58026 28.9978 3.6382C32.083 4.99499 34.654 6.96015 36.3777 9.91515C37.3481 11.5761 37.8671 13.3771 37.9275 15.3037C37.9299 15.3857 37.9396 15.4654 37.9468 15.5861C38.1641 15.5861 38.3572 15.5789 38.5503 15.5885C39.0066 15.6054 39.2721 15.8469 39.2794 16.2911C39.2914 17.1795 39.2938 18.0703 39.2794 18.9588C39.2721 19.3813 39.0066 19.6396 38.5793 19.6468C37.6909 19.6589 36.8001 19.6613 35.9117 19.6468C35.4893 19.6396 35.231 19.374 35.2261 18.9467C35.2141 18.0728 35.2141 17.1964 35.2261 16.3225C35.231 15.8517 35.4917 15.6079 35.9721 15.591C36.1531 15.5837 36.3366 15.591 36.5659 15.591C36.5925 14.6494 36.4428 13.7537 36.1821 12.8774C35.3468 10.089 33.5749 8.01033 31.2164 6.39281C28.9664 4.85013 26.4582 3.97378 23.711 3.58509C23.711 3.95205 23.7158 4.29969 23.7086 4.64493C23.6989 5.17122 23.4527 5.42472 22.9264 5.42713C21.6422 5.43437 20.3579 5.43437 19.0736 5.42713C18.5449 5.42472 18.3011 5.17364 18.2914 4.64734C18.2842 4.30935 18.2914 3.97378 18.2914 3.51266C17.1809 3.7903 16.1091 3.99792 15.0735 4.32625C12.0873 5.27504 9.52351 6.87807 7.59467 9.39126C6.34659 11.0184 5.6103 12.8532 5.44132 14.9077C5.42925 15.0478 5.42925 15.1902 5.42442 15.3302C5.42201 15.3978 5.42442 15.4678 5.42442 15.591C5.65376 15.591 5.85895 15.5837 6.06415 15.5934C6.49385 15.6151 6.76182 15.8565 6.76906 16.279C6.78354 17.1674 6.78113 18.0559 6.76906 18.9467C6.76423 19.374 6.50592 19.6444 6.08588 19.6492C5.1975 19.6637 4.30912 19.6613 3.41833 19.6492C2.98862 19.6444 2.72307 19.3861 2.71583 18.9636C2.70135 18.0752 2.70135 17.1867 2.71583 16.2959C2.72307 15.8493 2.98621 15.6079 3.44247 15.591C3.63559 15.5837 3.83113 15.5885 4.01219 15.5885C4.41292 9.40816 8.11128 5.8303 13.3981 3.43299C10.745 3.43299 8.11128 3.43299 5.41959 3.43299C5.41959 3.82168 5.42442 4.22485 5.41959 4.62803C5.41235 5.17847 5.16611 5.42472 4.61088 5.42713C3.34108 5.43196 2.07127 5.43196 0.801472 5.42713C0.251063 5.42472 0.00482814 5.17605 0.00241407 4.62078C0 3.34125 -0.00241407 2.07138 0.00482814 0.801504C0.00724222 0.251064 0.255892 0.00481482 0.811128 0.00240061C2.08093 -1.35981e-05 3.35073 -1.35984e-05 4.62053 0.00481482C5.17094 0.00722903 5.41235 0.255893 5.41959 0.811161C5.42442 1.20226 5.41959 1.59578 5.41959 2.02551ZM1.37361 4.0462C2.29095 4.0462 3.15761 4.0462 4.04116 4.0462C4.04116 3.1457 4.04116 2.26934 4.04116 1.38816C3.13829 1.38816 2.25957 1.38816 1.37361 1.38816C1.37361 2.28383 1.37361 3.15053 1.37361 4.0462ZM19.6626 4.0462C20.5775 4.0462 21.4466 4.0462 22.3302 4.0462C22.3302 3.14812 22.3302 2.26934 22.3302 1.38574C21.4273 1.38574 20.5486 1.38574 19.6626 1.38574C19.6626 2.28141 19.6626 3.14812 19.6626 4.0462ZM37.9685 1.37367C37.9685 2.29831 37.9685 3.17709 37.9685 4.04379C38.8714 4.04379 39.7405 4.04379 40.6168 4.04379C40.6168 3.14329 40.6168 2.26452 40.6168 1.37367C39.7211 1.37367 38.8545 1.37367 37.9685 1.37367ZM4.08702 18.2635C4.54328 18.2635 4.97057 18.2635 5.38821 18.2635C5.38821 17.8072 5.38821 17.3799 5.38821 16.9574C4.93919 16.9574 4.52156 16.9574 4.08702 16.9574C4.08702 17.3944 4.08702 17.812 4.08702 18.2635ZM36.6046 16.9453C36.6046 17.4089 36.6046 17.8362 36.6046 18.2635C37.0584 18.2635 37.4857 18.2635 37.8985 18.2635C37.8985 17.8048 37.8985 17.3799 37.8985 16.9453C37.4592 16.9453 37.0536 16.9453 36.6046 16.9453Z" fill="black"/>
</svg>
