<svg width="126" height="19" viewBox="0 0 126 19" fill="none" xmlns="http://www.w3.org/2000/svg">
<path d="M9.5 0L11.6329 6.56434H18.535L12.9511 10.6213L15.084 17.1857L9.5 13.1287L3.91604 17.1857L6.04892 10.6213L0.464963 6.56434H7.36712L9.5 0Z" fill="#F9BF00"/>
<path d="M29.5 0L31.6329 6.56434H38.535L32.9511 10.6213L35.084 17.1857L29.5 13.1287L23.916 17.1857L26.0489 10.6213L20.465 6.56434H27.3671L29.5 0Z" fill="#F9BF00"/>
<path d="M49.5 0L51.6329 6.56434H58.535L52.9511 10.6213L55.084 17.1857L49.5 13.1287L43.916 17.1857L46.0489 10.6213L40.465 6.56434H47.3671L49.5 0Z" fill="#F9BF00"/>
<path d="M69.5 0L71.6329 6.56434H78.535L72.9511 10.6213L75.084 17.1857L69.5 13.1287L63.916 17.1857L66.0489 10.6213L60.465 6.56434H67.3671L69.5 0Z" fill="#F9BF00"/>
<path d="M89.5 0L91.6329 6.56434H98.535L92.9511 10.6213L95.084 17.1857L89.5 13.1287L83.916 17.1857L86.0489 10.6213L80.465 6.56434H87.3671L89.5 0Z" fill="#F9BF00"/>
<path d="M106 10.375C106 9.17188 106.161 8.03125 106.484 6.95312C106.807 5.86979 107.281 4.90365 107.906 4.05469C108.531 3.20052 109.193 2.60156 109.891 2.25781L110.266 3.36719C109.531 3.92448 108.935 4.77604 108.477 5.92188C108.023 7.0625 107.776 8.36979 107.734 9.84375L107.727 10.5156C107.727 12.0938 107.948 13.5026 108.391 14.7422C108.839 15.9766 109.464 16.9167 110.266 17.5625L109.891 18.6172C109.193 18.2734 108.529 17.6719 107.898 16.8125C107.273 15.9583 106.799 14.9948 106.477 13.9219C106.159 12.8438 106 11.6615 106 10.375ZM117.336 3.57031V5.14062H117.102C116.039 5.15625 115.19 5.44792 114.555 6.01562C113.919 6.58333 113.542 7.38802 113.422 8.42969C114.031 7.78906 114.81 7.46875 115.758 7.46875C116.763 7.46875 117.555 7.82292 118.133 8.53125C118.716 9.23958 119.008 10.1536 119.008 11.2734C119.008 12.4297 118.667 13.3672 117.984 14.0859C117.307 14.7995 116.417 15.1562 115.312 15.1562C114.177 15.1562 113.255 14.737 112.547 13.8984C111.844 13.0599 111.492 11.9609 111.492 10.6016V9.95312C111.492 7.95833 111.977 6.39583 112.945 5.26562C113.919 4.13542 115.318 3.57031 117.141 3.57031H117.336ZM115.297 9C114.88 9 114.497 9.11719 114.148 9.35156C113.805 9.58594 113.552 9.89844 113.391 10.2891V10.8672C113.391 11.7109 113.568 12.3828 113.922 12.8828C114.276 13.3776 114.734 13.625 115.297 13.625C115.859 13.625 116.305 13.4141 116.633 12.9922C116.961 12.5703 117.125 12.0156 117.125 11.3281C117.125 10.6406 116.958 10.0807 116.625 9.64844C116.292 9.21615 115.849 9 115.297 9ZM124.305 10.5C124.305 11.6562 124.146 12.7734 123.828 13.8516C123.51 14.9245 123.029 15.901 122.383 16.7812C121.737 17.6667 121.062 18.2786 120.359 18.6172L119.984 17.5625C120.766 16.9583 121.383 16.0365 121.836 14.7969C122.294 13.5521 122.523 12.1328 122.523 10.5391V10.3594C122.523 8.91146 122.326 7.59375 121.93 6.40625C121.534 5.21354 120.966 4.25781 120.227 3.53906L119.984 3.32031L120.359 2.25781C121.026 2.58073 121.672 3.15365 122.297 3.97656C122.922 4.79948 123.401 5.72135 123.734 6.74219C124.068 7.75781 124.255 8.80729 124.297 9.89062L124.305 10.5Z" fill="#999999"/>
</svg>
