<svg width="22" height="22" viewBox="0 0 22 22" fill="none" xmlns="http://www.w3.org/2000/svg">
<path fill-rule="evenodd" clip-rule="evenodd" d="M11 0C4.95 0 0 4.95 0 11C0 17.05 4.95 22 11 22C17.05 22 22 17.05 22 11C22 4.95 17.05 0 11 0ZM15.8583 8.61671V8.89171C15.8583 12.1001 13.475 15.7667 8.98335 15.7667C7.60835 15.7667 6.32502 15.4001 5.31669 14.6667C6.60002 14.8501 7.88335 14.4834 8.89168 13.6584C7.79168 13.6584 6.96668 12.9251 6.60002 12.0084C6.96668 12.1001 7.33335 12.1001 7.70002 12.0084C6.60002 11.8251 5.77502 10.8167 5.77502 9.62504C6.14169 9.80837 6.50835 9.90007 6.87502 9.90007C6.23335 9.44171 5.77502 8.70837 5.77502 7.88337C5.77502 7.42504 5.86668 7.05837 6.14169 6.69171C7.33335 8.15837 9.07502 9.07504 11.0917 9.25837C11 8.98337 11 8.80004 11 8.61671C11 7.24171 12.1 6.23337 13.3834 6.23337C14.1167 6.23337 14.6667 6.50837 15.125 6.96671C15.675 6.87504 16.9583 6.69171 16.9583 6.69171C16.5917 7.24171 16.3167 8.25004 15.8583 8.61671Z" fill="#7C7C7D"/>
</svg>
